<svg width="150" height="50" viewBox="0 0 150 50" fill="none" xmlns="http://www.w3.org/2000/svg">
<rect width="150" height="50" rx="10" fill="#FF8F8F"/>
<path d="M14.5684 19.62H18.0934V21H12.8584V10.575H14.5684V19.62ZM23.1084 21.135C22.3284 21.135 21.6234 20.96 20.9934 20.61C20.3634 20.25 19.8684 19.75 19.5084 19.11C19.1484 18.46 18.9684 17.71 18.9684 16.86C18.9684 16.02 19.1534 15.275 19.5234 14.625C19.8934 13.975 20.3984 13.475 21.0384 13.125C21.6784 12.775 22.3934 12.6 23.1834 12.6C23.9734 12.6 24.6884 12.775 25.3284 13.125C25.9684 13.475 26.4734 13.975 26.8434 14.625C27.2134 15.275 27.3984 16.02 27.3984 16.86C27.3984 17.7 27.2084 18.445 26.8284 19.095C26.4484 19.745 25.9284 20.25 25.2684 20.61C24.6184 20.96 23.8984 21.135 23.1084 21.135ZM23.1084 19.65C23.5484 19.65 23.9584 19.545 24.3384 19.335C24.7284 19.125 25.0434 18.81 25.2834 18.39C25.5234 17.97 25.6434 17.46 25.6434 16.86C25.6434 16.26 25.5284 15.755 25.2984 15.345C25.0684 14.925 24.7634 14.61 24.3834 14.4C24.0034 14.19 23.5934 14.085 23.1534 14.085C22.7134 14.085 22.3034 14.19 21.9234 14.4C21.5534 14.61 21.2584 14.925 21.0384 15.345C20.8184 15.755 20.7084 16.26 20.7084 16.86C20.7084 17.75 20.9334 18.44 21.3834 18.93C21.8434 19.41 22.4184 19.65 23.1084 19.65ZM36.5289 12.735L31.4589 24.885H29.6889L31.3689 20.865L28.1139 12.735H30.0189L32.3439 19.035L34.7589 12.735H36.5289ZM41.4043 21.135C40.6243 21.135 39.9193 20.96 39.2893 20.61C38.6593 20.25 38.1643 19.75 37.8043 19.11C37.4443 18.46 37.2643 17.71 37.2643 16.86C37.2643 16.02 37.4493 15.275 37.8193 14.625C38.1893 13.975 38.6943 13.475 39.3343 13.125C39.9743 12.775 40.6893 12.6 41.4793 12.6C42.2693 12.6 42.9843 12.775 43.6243 13.125C44.2643 13.475 44.7693 13.975 45.1393 14.625C45.5093 15.275 45.6943 16.02 45.6943 16.86C45.6943 17.7 45.5043 18.445 45.1243 19.095C44.7443 19.745 44.2243 20.25 43.5643 20.61C42.9143 20.96 42.1943 21.135 41.4043 21.135ZM41.4043 19.65C41.8443 19.65 42.2543 19.545 42.6343 19.335C43.0243 19.125 43.3393 18.81 43.5793 18.39C43.8193 17.97 43.9393 17.46 43.9393 16.86C43.9393 16.26 43.8243 15.755 43.5943 15.345C43.3643 14.925 43.0593 14.61 42.6793 14.4C42.2993 14.19 41.8893 14.085 41.4493 14.085C41.0093 14.085 40.5993 14.19 40.2193 14.4C39.8493 14.61 39.5543 14.925 39.3343 15.345C39.1143 15.755 39.0043 16.26 39.0043 16.86C39.0043 17.75 39.2293 18.44 39.6793 18.93C40.1393 19.41 40.7143 19.65 41.4043 19.65ZM49.0948 9.9V21H47.3848V9.9H49.0948ZM50.7698 16.83C50.7698 16 50.9398 15.265 51.2798 14.625C51.6298 13.985 52.0998 13.49 52.6898 13.14C53.2898 12.78 53.9498 12.6 54.6698 12.6C55.3198 12.6 55.8848 12.73 56.3648 12.99C56.8548 13.24 57.2448 13.555 57.5348 13.935V12.735H59.2598V21H57.5348V19.77C57.2448 20.16 56.8498 20.485 56.3498 20.745C55.8498 21.005 55.2798 21.135 54.6398 21.135C53.9298 21.135 53.2798 20.955 52.6898 20.595C52.0998 20.225 51.6298 19.715 51.2798 19.065C50.9398 18.405 50.7698 17.66 50.7698 16.83ZM57.5348 16.86C57.5348 16.29 57.4148 15.795 57.1748 15.375C56.9448 14.955 56.6398 14.635 56.2598 14.415C55.8798 14.195 55.4698 14.085 55.0298 14.085C54.5898 14.085 54.1798 14.195 53.7998 14.415C53.4198 14.625 53.1098 14.94 52.8698 15.36C52.6398 15.77 52.5248 16.26 52.5248 16.83C52.5248 17.4 52.6398 17.9 52.8698 18.33C53.1098 18.76 53.4198 19.09 53.7998 19.32C54.1898 19.54 54.5998 19.65 55.0298 19.65C55.4698 19.65 55.8798 19.54 56.2598 19.32C56.6398 19.1 56.9448 18.78 57.1748 18.36C57.4148 17.93 57.5348 17.43 57.5348 16.86ZM67.0973 10.575V17.22C67.0973 18.01 67.3023 18.605 67.7123 19.005C68.1323 19.405 68.7123 19.605 69.4523 19.605C70.2023 19.605 70.7823 19.405 71.1923 19.005C71.6123 18.605 71.8223 18.01 71.8223 17.22V10.575H73.5323V17.19C73.5323 18.04 73.3473 18.76 72.9773 19.35C72.6073 19.94 72.1123 20.38 71.4923 20.67C70.8723 20.96 70.1873 21.105 69.4373 21.105C68.6873 21.105 68.0023 20.96 67.3823 20.67C66.7723 20.38 66.2873 19.94 65.9273 19.35C65.5673 18.76 65.3873 18.04 65.3873 17.19V10.575H67.0973ZM79.9288 12.6C80.5788 12.6 81.1588 12.735 81.6688 13.005C82.1888 13.275 82.5938 13.675 82.8838 14.205C83.1738 14.735 83.3188 15.375 83.3188 16.125V21H81.6238V16.38C81.6238 15.64 81.4388 15.075 81.0688 14.685C80.6988 14.285 80.1938 14.085 79.5538 14.085C78.9138 14.085 78.4038 14.285 78.0238 14.685C77.6538 15.075 77.4688 15.64 77.4688 16.38V21H75.7588V12.735H77.4688V13.68C77.7488 13.34 78.1038 13.075 78.5338 12.885C78.9738 12.695 79.4388 12.6 79.9288 12.6ZM86.37 11.64C86.06 11.64 85.8 11.535 85.59 11.325C85.38 11.115 85.275 10.855 85.275 10.545C85.275 10.235 85.38 9.975 85.59 9.765C85.8 9.555 86.06 9.45 86.37 9.45C86.67 9.45 86.925 9.555 87.135 9.765C87.345 9.975 87.45 10.235 87.45 10.545C87.45 10.855 87.345 11.115 87.135 11.325C86.925 11.535 86.67 11.64 86.37 11.64ZM87.21 12.735V21H85.5V12.735H87.21ZM92.6501 19.47L94.9901 12.735H96.8051L93.6551 21H91.6151L88.4801 12.735H90.3101L92.6501 19.47ZM105.673 16.665C105.673 16.975 105.653 17.255 105.613 17.505H99.2977C99.3477 18.165 99.5927 18.695 100.033 19.095C100.473 19.495 101.013 19.695 101.653 19.695C102.573 19.695 103.223 19.31 103.603 18.54H105.448C105.198 19.3 104.743 19.925 104.083 20.415C103.433 20.895 102.623 21.135 101.653 21.135C100.863 21.135 100.153 20.96 99.5227 20.61C98.9027 20.25 98.4127 19.75 98.0527 19.11C97.7027 18.46 97.5277 17.71 97.5277 16.86C97.5277 16.01 97.6977 15.265 98.0377 14.625C98.3877 13.975 98.8727 13.475 99.4927 13.125C100.123 12.775 100.843 12.6 101.653 12.6C102.433 12.6 103.128 12.77 103.738 13.11C104.348 13.45 104.823 13.93 105.163 14.55C105.503 15.16 105.673 15.865 105.673 16.665ZM103.888 16.125C103.878 15.495 103.653 14.99 103.213 14.61C102.773 14.23 102.228 14.04 101.578 14.04C100.988 14.04 100.483 14.23 100.063 14.61C99.6427 14.98 99.3927 15.485 99.3127 16.125H103.888ZM109.065 13.935C109.315 13.515 109.645 13.19 110.055 12.96C110.475 12.72 110.97 12.6 111.54 12.6V14.37H111.105C110.435 14.37 109.925 14.54 109.575 14.88C109.235 15.22 109.065 15.81 109.065 16.65V21H107.355V12.735H109.065V13.935ZM116.112 21.135C115.462 21.135 114.877 21.02 114.357 20.79C113.847 20.55 113.442 20.23 113.142 19.83C112.842 19.42 112.682 18.965 112.662 18.465H114.432C114.462 18.815 114.627 19.11 114.927 19.35C115.237 19.58 115.622 19.695 116.082 19.695C116.562 19.695 116.932 19.605 117.192 19.425C117.462 19.235 117.597 18.995 117.597 18.705C117.597 18.395 117.447 18.165 117.147 18.015C116.857 17.865 116.392 17.7 115.752 17.52C115.132 17.35 114.627 17.185 114.237 17.025C113.847 16.865 113.507 16.62 113.217 16.29C112.937 15.96 112.797 15.525 112.797 14.985C112.797 14.545 112.927 14.145 113.187 13.785C113.447 13.415 113.817 13.125 114.297 12.915C114.787 12.705 115.347 12.6 115.977 12.6C116.917 12.6 117.672 12.84 118.242 13.32C118.822 13.79 119.132 14.435 119.172 15.255H117.462C117.432 14.885 117.282 14.59 117.012 14.37C116.742 14.15 116.377 14.04 115.917 14.04C115.467 14.04 115.122 14.125 114.882 14.295C114.642 14.465 114.522 14.69 114.522 14.97C114.522 15.19 114.602 15.375 114.762 15.525C114.922 15.675 115.117 15.795 115.347 15.885C115.577 15.965 115.917 16.07 116.367 16.2C116.967 16.36 117.457 16.525 117.837 16.695C118.227 16.855 118.562 17.095 118.842 17.415C119.122 17.735 119.267 18.16 119.277 18.69C119.277 19.16 119.147 19.58 118.887 19.95C118.627 20.32 118.257 20.61 117.777 20.82C117.307 21.03 116.752 21.135 116.112 21.135ZM121.995 11.64C121.685 11.64 121.425 11.535 121.215 11.325C121.005 11.115 120.9 10.855 120.9 10.545C120.9 10.235 121.005 9.975 121.215 9.765C121.425 9.555 121.685 9.45 121.995 9.45C122.295 9.45 122.55 9.555 122.76 9.765C122.97 9.975 123.075 10.235 123.075 10.545C123.075 10.855 122.97 11.115 122.76 11.325C122.55 11.535 122.295 11.64 121.995 11.64ZM122.835 12.735V21H121.125V12.735H122.835ZM127.075 14.13V18.705C127.075 19.015 127.145 19.24 127.285 19.38C127.435 19.51 127.685 19.575 128.035 19.575H129.085V21H127.735C126.965 21 126.375 20.82 125.965 20.46C125.555 20.1 125.35 19.515 125.35 18.705V14.13H124.375V12.735H125.35V10.68H127.075V12.735H129.085V14.13H127.075ZM138.101 12.735L133.031 24.885H131.261L132.941 20.865L129.686 12.735H131.591L133.916 19.035L136.331 12.735H138.101ZM19.1658 32.765C19.1658 31.745 19.4008 30.83 19.8708 30.02C20.3508 29.21 20.9958 28.58 21.8058 28.13C22.6258 27.67 23.5208 27.44 24.4908 27.44C25.6008 27.44 26.5858 27.715 27.4458 28.265C28.3158 28.805 28.9458 29.575 29.3358 30.575H27.2808C27.0108 30.025 26.6358 29.615 26.1558 29.345C25.6758 29.075 25.1208 28.94 24.4908 28.94C23.8008 28.94 23.1858 29.095 22.6458 29.405C22.1058 29.715 21.6808 30.16 21.3708 30.74C21.0708 31.32 20.9208 31.995 20.9208 32.765C20.9208 33.535 21.0708 34.21 21.3708 34.79C21.6808 35.37 22.1058 35.82 22.6458 36.14C23.1858 36.45 23.8008 36.605 24.4908 36.605C25.1208 36.605 25.6758 36.47 26.1558 36.2C26.6358 35.93 27.0108 35.52 27.2808 34.97H29.3358C28.9458 35.97 28.3158 36.74 27.4458 37.28C26.5858 37.82 25.6008 38.09 24.4908 38.09C23.5108 38.09 22.6158 37.865 21.8058 37.415C20.9958 36.955 20.3508 36.32 19.8708 35.51C19.4008 34.7 19.1658 33.785 19.1658 32.765ZM35.6124 29.6C36.2424 29.6 36.8024 29.735 37.2924 30.005C37.7924 30.275 38.1824 30.675 38.4624 31.205C38.7524 31.735 38.8974 32.375 38.8974 33.125V38H37.2024V33.38C37.2024 32.64 37.0174 32.075 36.6474 31.685C36.2774 31.285 35.7724 31.085 35.1324 31.085C34.4924 31.085 33.9824 31.285 33.6024 31.685C33.2324 32.075 33.0474 32.64 33.0474 33.38V38H31.3374V26.9H33.0474V30.695C33.3374 30.345 33.7024 30.075 34.1424 29.885C34.5924 29.695 35.0824 29.6 35.6124 29.6ZM41.9486 28.64C41.6386 28.64 41.3786 28.535 41.1686 28.325C40.9586 28.115 40.8536 27.855 40.8536 27.545C40.8536 27.235 40.9586 26.975 41.1686 26.765C41.3786 26.555 41.6386 26.45 41.9486 26.45C42.2486 26.45 42.5036 26.555 42.7136 26.765C42.9236 26.975 43.0286 27.235 43.0286 27.545C43.0286 27.855 42.9236 28.115 42.7136 28.325C42.5036 28.535 42.2486 28.64 41.9486 28.64ZM42.7886 29.735V38H41.0786V29.735H42.7886ZM44.4637 33.86C44.4637 33.01 44.6337 32.265 44.9737 31.625C45.3237 30.975 45.8037 30.475 46.4137 30.125C47.0237 29.775 47.7237 29.6 48.5137 29.6C49.5137 29.6 50.3387 29.84 50.9887 30.32C51.6487 30.79 52.0937 31.465 52.3237 32.345H50.4787C50.3287 31.935 50.0887 31.615 49.7587 31.385C49.4287 31.155 49.0137 31.04 48.5137 31.04C47.8137 31.04 47.2537 31.29 46.8337 31.79C46.4237 32.28 46.2187 32.97 46.2187 33.86C46.2187 34.75 46.4237 35.445 46.8337 35.945C47.2537 36.445 47.8137 36.695 48.5137 36.695C49.5037 36.695 50.1587 36.26 50.4787 35.39H52.3237C52.0837 36.23 51.6337 36.9 50.9737 37.4C50.3137 37.89 49.4937 38.135 48.5137 38.135C47.7237 38.135 47.0237 37.96 46.4137 37.61C45.8037 37.25 45.3237 36.75 44.9737 36.11C44.6337 35.46 44.4637 34.71 44.4637 33.86ZM53.4578 33.83C53.4578 33 53.6278 32.265 53.9678 31.625C54.3178 30.985 54.7878 30.49 55.3778 30.14C55.9778 29.78 56.6378 29.6 57.3578 29.6C58.0078 29.6 58.5728 29.73 59.0528 29.99C59.5428 30.24 59.9328 30.555 60.2228 30.935V29.735H61.9478V38H60.2228V36.77C59.9328 37.16 59.5378 37.485 59.0378 37.745C58.5378 38.005 57.9678 38.135 57.3278 38.135C56.6178 38.135 55.9678 37.955 55.3778 37.595C54.7878 37.225 54.3178 36.715 53.9678 36.065C53.6278 35.405 53.4578 34.66 53.4578 33.83ZM60.2228 33.86C60.2228 33.29 60.1028 32.795 59.8628 32.375C59.6328 31.955 59.3278 31.635 58.9478 31.415C58.5678 31.195 58.1578 31.085 57.7178 31.085C57.2778 31.085 56.8678 31.195 56.4878 31.415C56.1078 31.625 55.7978 31.94 55.5578 32.36C55.3278 32.77 55.2128 33.26 55.2128 33.83C55.2128 34.4 55.3278 34.9 55.5578 35.33C55.7978 35.76 56.1078 36.09 56.4878 36.32C56.8778 36.54 57.2878 36.65 57.7178 36.65C58.1578 36.65 58.5678 36.54 58.9478 36.32C59.3278 36.1 59.6328 35.78 59.8628 35.36C60.1028 34.93 60.2228 34.43 60.2228 33.86ZM67.5238 29.6C68.1638 29.6 68.7288 29.73 69.2188 29.99C69.7188 30.24 70.1088 30.555 70.3888 30.935V29.735H72.1138V38.135C72.1138 38.895 71.9538 39.57 71.6338 40.16C71.3138 40.76 70.8488 41.23 70.2388 41.57C69.6388 41.91 68.9188 42.08 68.0788 42.08C66.9588 42.08 66.0288 41.815 65.2888 41.285C64.5488 40.765 64.1288 40.055 64.0288 39.155H65.7238C65.8538 39.585 66.1288 39.93 66.5488 40.19C66.9788 40.46 67.4888 40.595 68.0788 40.595C68.7688 40.595 69.3238 40.385 69.7438 39.965C70.1738 39.545 70.3888 38.935 70.3888 38.135V36.755C70.0988 37.145 69.7038 37.475 69.2038 37.745C68.7138 38.005 68.1538 38.135 67.5238 38.135C66.8038 38.135 66.1438 37.955 65.5438 37.595C64.9538 37.225 64.4838 36.715 64.1338 36.065C63.7938 35.405 63.6238 34.66 63.6238 33.83C63.6238 33 63.7938 32.265 64.1338 31.625C64.4838 30.985 64.9538 30.49 65.5438 30.14C66.1438 29.78 66.8038 29.6 67.5238 29.6ZM70.3888 33.86C70.3888 33.29 70.2688 32.795 70.0288 32.375C69.7988 31.955 69.4938 31.635 69.1138 31.415C68.7338 31.195 68.3238 31.085 67.8838 31.085C67.4438 31.085 67.0338 31.195 66.6538 31.415C66.2738 31.625 65.9638 31.94 65.7238 32.36C65.4938 32.77 65.3788 33.26 65.3788 33.83C65.3788 34.4 65.4938 34.9 65.7238 35.33C65.9638 35.76 66.2738 36.09 66.6538 36.32C67.0438 36.54 67.4538 36.65 67.8838 36.65C68.3238 36.65 68.7338 36.54 69.1138 36.32C69.4938 36.1 69.7988 35.78 70.0288 35.36C70.2688 34.93 70.3888 34.43 70.3888 33.86ZM77.9449 38.135C77.1649 38.135 76.4599 37.96 75.8299 37.61C75.1999 37.25 74.7049 36.75 74.3449 36.11C73.9849 35.46 73.8049 34.71 73.8049 33.86C73.8049 33.02 73.9899 32.275 74.3599 31.625C74.7299 30.975 75.2349 30.475 75.8749 30.125C76.5149 29.775 77.2299 29.6 78.0199 29.6C78.8099 29.6 79.5249 29.775 80.1649 30.125C80.8049 30.475 81.3099 30.975 81.6799 31.625C82.0499 32.275 82.2349 33.02 82.2349 33.86C82.2349 34.7 82.0449 35.445 81.6649 36.095C81.2849 36.745 80.7649 37.25 80.1049 37.61C79.4549 37.96 78.7349 38.135 77.9449 38.135ZM77.9449 36.65C78.3849 36.65 78.7949 36.545 79.1749 36.335C79.5649 36.125 79.8799 35.81 80.1199 35.39C80.3599 34.97 80.4799 34.46 80.4799 33.86C80.4799 33.26 80.3649 32.755 80.1349 32.345C79.9049 31.925 79.5999 31.61 79.2199 31.4C78.8399 31.19 78.4299 31.085 77.9899 31.085C77.5499 31.085 77.1399 31.19 76.7599 31.4C76.3899 31.61 76.0949 31.925 75.8749 32.345C75.6549 32.755 75.5449 33.26 75.5449 33.86C75.5449 34.75 75.7699 35.44 76.2199 35.93C76.6799 36.41 77.2549 36.65 77.9449 36.65ZM91.6018 40.79C90.6218 39.85 89.8668 38.655 89.3368 37.205C88.8168 35.755 88.5568 34.2 88.5568 32.54C88.5568 30.84 88.8368 29.235 89.3968 27.725C89.9668 26.215 90.8018 24.97 91.9018 23.99H93.6718V24.155C92.5218 25.215 91.6568 26.485 91.0768 27.965C90.4968 29.445 90.2068 30.97 90.2068 32.54C90.2068 34.05 90.4768 35.51 91.0168 36.92C91.5568 38.33 92.3418 39.565 93.3718 40.625V40.79H91.6018ZM101.49 35.87H97.1246L96.3746 38H94.5896L98.3246 27.56H100.305L104.04 38H102.24L101.49 35.87ZM101.01 34.475L99.3146 29.63L97.6046 34.475H101.01ZM105.094 32.765C105.094 31.745 105.329 30.83 105.799 30.02C106.279 29.21 106.924 28.58 107.734 28.13C108.554 27.67 109.449 27.44 110.419 27.44C111.529 27.44 112.514 27.715 113.374 28.265C114.244 28.805 114.874 29.575 115.264 30.575H113.209C112.939 30.025 112.564 29.615 112.084 29.345C111.604 29.075 111.049 28.94 110.419 28.94C109.729 28.94 109.114 29.095 108.574 29.405C108.034 29.715 107.609 30.16 107.299 30.74C106.999 31.32 106.849 31.995 106.849 32.765C106.849 33.535 106.999 34.21 107.299 34.79C107.609 35.37 108.034 35.82 108.574 36.14C109.114 36.45 109.729 36.605 110.419 36.605C111.049 36.605 111.604 36.47 112.084 36.2C112.564 35.93 112.939 35.52 113.209 34.97H115.264C114.874 35.97 114.244 36.74 113.374 37.28C112.514 37.82 111.529 38.09 110.419 38.09C109.439 38.09 108.544 37.865 107.734 37.415C106.924 36.955 106.279 36.32 105.799 35.51C105.329 34.7 105.094 33.785 105.094 32.765ZM118.975 28.955V32.015H122.575V33.41H118.975V36.605H123.025V38H117.265V27.56H123.025V28.955H118.975ZM124.711 40.79V40.625C125.741 39.565 126.526 38.33 127.066 36.92C127.606 35.51 127.876 34.05 127.876 32.54C127.876 30.97 127.586 29.445 127.006 27.965C126.426 26.485 125.561 25.215 124.411 24.155V23.99H126.181C127.281 24.97 128.111 26.215 128.671 27.725C129.241 29.235 129.526 30.84 129.526 32.54C129.526 34.2 129.261 35.755 128.731 37.205C128.211 38.655 127.461 39.85 126.481 40.79H124.711Z" fill="white"/>
</svg>
