<svg width="150" height="50" viewBox="0 0 150 50" fill="none" xmlns="http://www.w3.org/2000/svg">
<rect width="150" height="50" rx="10" fill="#FF8F8F"/>
<path d="M28.6767 20.575L25.2267 27.22V31H23.5167V27.22L20.0517 20.575H21.9567L24.3717 25.69L26.7867 20.575H28.6767ZM29.4637 26.83C29.4637 26 29.6337 25.265 29.9737 24.625C30.3237 23.985 30.7937 23.49 31.3837 23.14C31.9837 22.78 32.6437 22.6 33.3637 22.6C34.0137 22.6 34.5787 22.73 35.0587 22.99C35.5487 23.24 35.9387 23.555 36.2287 23.935V22.735H37.9537V31H36.2287V29.77C35.9387 30.16 35.5437 30.485 35.0437 30.745C34.5437 31.005 33.9737 31.135 33.3337 31.135C32.6237 31.135 31.9737 30.955 31.3837 30.595C30.7937 30.225 30.3237 29.715 29.9737 29.065C29.6337 28.405 29.4637 27.66 29.4637 26.83ZM36.2287 26.86C36.2287 26.29 36.1087 25.795 35.8687 25.375C35.6387 24.955 35.3337 24.635 34.9537 24.415C34.5737 24.195 34.1637 24.085 33.7237 24.085C33.2837 24.085 32.8737 24.195 32.4937 24.415C32.1137 24.625 31.8037 24.94 31.5637 25.36C31.3337 25.77 31.2187 26.26 31.2187 26.83C31.2187 27.4 31.3337 27.9 31.5637 28.33C31.8037 28.76 32.1137 29.09 32.4937 29.32C32.8837 29.54 33.2937 29.65 33.7237 29.65C34.1637 29.65 34.5737 29.54 34.9537 29.32C35.3337 29.1 35.6387 28.78 35.8687 28.36C36.1087 27.93 36.2287 27.43 36.2287 26.86ZM41.9097 19.9V31H40.1997V19.9H41.9097ZM51.7298 26.665C51.7298 26.975 51.7098 27.255 51.6698 27.505H45.3548C45.4048 28.165 45.6498 28.695 46.0898 29.095C46.5298 29.495 47.0698 29.695 47.7098 29.695C48.6298 29.695 49.2798 29.31 49.6598 28.54H51.5048C51.2548 29.3 50.7998 29.925 50.1398 30.415C49.4898 30.895 48.6798 31.135 47.7098 31.135C46.9198 31.135 46.2098 30.96 45.5798 30.61C44.9598 30.25 44.4698 29.75 44.1098 29.11C43.7598 28.46 43.5848 27.71 43.5848 26.86C43.5848 26.01 43.7548 25.265 44.0948 24.625C44.4448 23.975 44.9298 23.475 45.5498 23.125C46.1798 22.775 46.8998 22.6 47.7098 22.6C48.4898 22.6 49.1848 22.77 49.7948 23.11C50.4048 23.45 50.8798 23.93 51.2198 24.55C51.5598 25.16 51.7298 25.865 51.7298 26.665ZM49.9448 26.125C49.9348 25.495 49.7098 24.99 49.2698 24.61C48.8298 24.23 48.2848 24.04 47.6348 24.04C47.0448 24.04 46.5398 24.23 46.1198 24.61C45.6998 24.98 45.4498 25.485 45.3698 26.125H49.9448ZM59.0041 20.575V27.22C59.0041 28.01 59.2091 28.605 59.6191 29.005C60.0391 29.405 60.6191 29.605 61.3591 29.605C62.1091 29.605 62.6891 29.405 63.0991 29.005C63.5191 28.605 63.7291 28.01 63.7291 27.22V20.575H65.4391V27.19C65.4391 28.04 65.2541 28.76 64.8841 29.35C64.5141 29.94 64.0191 30.38 63.3991 30.67C62.7791 30.96 62.0941 31.105 61.3441 31.105C60.5941 31.105 59.9091 30.96 59.2891 30.67C58.6791 30.38 58.1941 29.94 57.8341 29.35C57.4741 28.76 57.2941 28.04 57.2941 27.19V20.575H59.0041ZM71.8355 22.6C72.4855 22.6 73.0655 22.735 73.5755 23.005C74.0955 23.275 74.5005 23.675 74.7905 24.205C75.0805 24.735 75.2255 25.375 75.2255 26.125V31H73.5305V26.38C73.5305 25.64 73.3455 25.075 72.9755 24.685C72.6055 24.285 72.1005 24.085 71.4605 24.085C70.8205 24.085 70.3105 24.285 69.9305 24.685C69.5605 25.075 69.3755 25.64 69.3755 26.38V31H67.6655V22.735H69.3755V23.68C69.6555 23.34 70.0105 23.075 70.4405 22.885C70.8805 22.695 71.3455 22.6 71.8355 22.6ZM78.2767 21.64C77.9667 21.64 77.7067 21.535 77.4967 21.325C77.2867 21.115 77.1817 20.855 77.1817 20.545C77.1817 20.235 77.2867 19.975 77.4967 19.765C77.7067 19.555 77.9667 19.45 78.2767 19.45C78.5767 19.45 78.8317 19.555 79.0417 19.765C79.2517 19.975 79.3567 20.235 79.3567 20.545C79.3567 20.855 79.2517 21.115 79.0417 21.325C78.8317 21.535 78.5767 21.64 78.2767 21.64ZM79.1167 22.735V31H77.4067V22.735H79.1167ZM84.5568 29.47L86.8968 22.735H88.7118L85.5618 31H83.5218L80.3868 22.735H82.2168L84.5568 29.47ZM97.5794 26.665C97.5794 26.975 97.5594 27.255 97.5194 27.505H91.2044C91.2544 28.165 91.4994 28.695 91.9394 29.095C92.3794 29.495 92.9194 29.695 93.5594 29.695C94.4794 29.695 95.1294 29.31 95.5094 28.54H97.3544C97.1044 29.3 96.6494 29.925 95.9894 30.415C95.3394 30.895 94.5294 31.135 93.5594 31.135C92.7694 31.135 92.0594 30.96 91.4294 30.61C90.8094 30.25 90.3194 29.75 89.9594 29.11C89.6094 28.46 89.4344 27.71 89.4344 26.86C89.4344 26.01 89.6044 25.265 89.9444 24.625C90.2944 23.975 90.7794 23.475 91.3994 23.125C92.0294 22.775 92.7494 22.6 93.5594 22.6C94.3394 22.6 95.0344 22.77 95.6444 23.11C96.2544 23.45 96.7294 23.93 97.0694 24.55C97.4094 25.16 97.5794 25.865 97.5794 26.665ZM95.7944 26.125C95.7844 25.495 95.5594 24.99 95.1194 24.61C94.6794 24.23 94.1344 24.04 93.4844 24.04C92.8944 24.04 92.3894 24.23 91.9694 24.61C91.5494 24.98 91.2994 25.485 91.2194 26.125H95.7944ZM100.972 23.935C101.222 23.515 101.552 23.19 101.962 22.96C102.382 22.72 102.877 22.6 103.447 22.6V24.37H103.012C102.342 24.37 101.832 24.54 101.482 24.88C101.142 25.22 100.972 25.81 100.972 26.65V31H99.2622V22.735H100.972V23.935ZM108.019 31.135C107.369 31.135 106.784 31.02 106.264 30.79C105.754 30.55 105.349 30.23 105.049 29.83C104.749 29.42 104.589 28.965 104.569 28.465H106.339C106.369 28.815 106.534 29.11 106.834 29.35C107.144 29.58 107.529 29.695 107.989 29.695C108.469 29.695 108.839 29.605 109.099 29.425C109.369 29.235 109.504 28.995 109.504 28.705C109.504 28.395 109.354 28.165 109.054 28.015C108.764 27.865 108.299 27.7 107.659 27.52C107.039 27.35 106.534 27.185 106.144 27.025C105.754 26.865 105.414 26.62 105.124 26.29C104.844 25.96 104.704 25.525 104.704 24.985C104.704 24.545 104.834 24.145 105.094 23.785C105.354 23.415 105.724 23.125 106.204 22.915C106.694 22.705 107.254 22.6 107.884 22.6C108.824 22.6 109.579 22.84 110.149 23.32C110.729 23.79 111.039 24.435 111.079 25.255H109.369C109.339 24.885 109.189 24.59 108.919 24.37C108.649 24.15 108.284 24.04 107.824 24.04C107.374 24.04 107.029 24.125 106.789 24.295C106.549 24.465 106.429 24.69 106.429 24.97C106.429 25.19 106.509 25.375 106.669 25.525C106.829 25.675 107.024 25.795 107.254 25.885C107.484 25.965 107.824 26.07 108.274 26.2C108.874 26.36 109.364 26.525 109.744 26.695C110.134 26.855 110.469 27.095 110.749 27.415C111.029 27.735 111.174 28.16 111.184 28.69C111.184 29.16 111.054 29.58 110.794 29.95C110.534 30.32 110.164 30.61 109.684 30.82C109.214 31.03 108.659 31.135 108.019 31.135ZM113.902 21.64C113.592 21.64 113.332 21.535 113.122 21.325C112.912 21.115 112.807 20.855 112.807 20.545C112.807 20.235 112.912 19.975 113.122 19.765C113.332 19.555 113.592 19.45 113.902 19.45C114.202 19.45 114.457 19.555 114.667 19.765C114.877 19.975 114.982 20.235 114.982 20.545C114.982 20.855 114.877 21.115 114.667 21.325C114.457 21.535 114.202 21.64 113.902 21.64ZM114.742 22.735V31H113.032V22.735H114.742ZM118.982 24.13V28.705C118.982 29.015 119.052 29.24 119.192 29.38C119.342 29.51 119.592 29.575 119.942 29.575H120.992V31H119.642C118.872 31 118.282 30.82 117.872 30.46C117.462 30.1 117.257 29.515 117.257 28.705V24.13H116.282V22.735H117.257V20.68H118.982V22.735H120.992V24.13H118.982ZM130.008 22.735L124.938 34.885H123.168L124.848 30.865L121.593 22.735H123.498L125.823 29.035L128.238 22.735H130.008Z" fill="white"/>
</svg>
