<svg width="150" height="50" viewBox="0 0 150 50" fill="none" xmlns="http://www.w3.org/2000/svg">
<rect width="150" height="50" rx="10" fill="#FF8F8F"/>
<path d="M51.8865 9.575V20H50.1765V15.44H45.2715V20H43.5615V9.575H45.2715V14.045H50.1765V9.575H51.8865ZM53.5677 15.83C53.5677 15 53.7377 14.265 54.0777 13.625C54.4277 12.985 54.8977 12.49 55.4877 12.14C56.0877 11.78 56.7477 11.6 57.4677 11.6C58.1177 11.6 58.6827 11.73 59.1627 11.99C59.6527 12.24 60.0427 12.555 60.3327 12.935V11.735H62.0577V20H60.3327V18.77C60.0427 19.16 59.6477 19.485 59.1477 19.745C58.6477 20.005 58.0777 20.135 57.4377 20.135C56.7277 20.135 56.0777 19.955 55.4877 19.595C54.8977 19.225 54.4277 18.715 54.0777 18.065C53.7377 17.405 53.5677 16.66 53.5677 15.83ZM60.3327 15.86C60.3327 15.29 60.2127 14.795 59.9727 14.375C59.7427 13.955 59.4377 13.635 59.0577 13.415C58.6777 13.195 58.2677 13.085 57.8277 13.085C57.3877 13.085 56.9777 13.195 56.5977 13.415C56.2177 13.625 55.9077 13.94 55.6677 14.36C55.4377 14.77 55.3227 15.26 55.3227 15.83C55.3227 16.4 55.4377 16.9 55.6677 17.33C55.9077 17.76 56.2177 18.09 56.5977 18.32C56.9877 18.54 57.3977 18.65 57.8277 18.65C58.2677 18.65 58.6777 18.54 59.0577 18.32C59.4377 18.1 59.7427 17.78 59.9727 17.36C60.2127 16.93 60.3327 16.43 60.3327 15.86ZM66.0137 12.935C66.2637 12.515 66.5937 12.19 67.0037 11.96C67.4237 11.72 67.9187 11.6 68.4887 11.6V13.37H68.0537C67.3837 13.37 66.8737 13.54 66.5237 13.88C66.1837 14.22 66.0137 14.81 66.0137 15.65V20H64.3037V11.735H66.0137V12.935ZM73.2555 18.47L75.5955 11.735H77.4105L74.2605 20H72.2205L69.0855 11.735H70.9155L73.2555 18.47ZM78.1331 15.83C78.1331 15 78.3031 14.265 78.6431 13.625C78.9931 12.985 79.4631 12.49 80.0531 12.14C80.6531 11.78 81.3131 11.6 82.0331 11.6C82.6831 11.6 83.2481 11.73 83.7281 11.99C84.2181 12.24 84.6081 12.555 84.8981 12.935V11.735H86.6231V20H84.8981V18.77C84.6081 19.16 84.2131 19.485 83.7131 19.745C83.2131 20.005 82.6431 20.135 82.0031 20.135C81.2931 20.135 80.6431 19.955 80.0531 19.595C79.4631 19.225 78.9931 18.715 78.6431 18.065C78.3031 17.405 78.1331 16.66 78.1331 15.83ZM84.8981 15.86C84.8981 15.29 84.7781 14.795 84.5381 14.375C84.3081 13.955 84.0031 13.635 83.6231 13.415C83.2431 13.195 82.8331 13.085 82.3931 13.085C81.9531 13.085 81.5431 13.195 81.1631 13.415C80.7831 13.625 80.4731 13.94 80.2331 14.36C80.0031 14.77 79.8881 15.26 79.8881 15.83C79.8881 16.4 80.0031 16.9 80.2331 17.33C80.4731 17.76 80.7831 18.09 81.1631 18.32C81.5531 18.54 81.9631 18.65 82.3931 18.65C82.8331 18.65 83.2431 18.54 83.6231 18.32C84.0031 18.1 84.3081 17.78 84.5381 17.36C84.7781 16.93 84.8981 16.43 84.8981 15.86ZM90.5791 12.935C90.8291 12.515 91.1591 12.19 91.5691 11.96C91.9891 11.72 92.4841 11.6 93.0541 11.6V13.37H92.6191C91.9491 13.37 91.4391 13.54 91.0891 13.88C90.7491 14.22 90.5791 14.81 90.5791 15.65V20H88.8691V11.735H90.5791V12.935ZM94.056 15.83C94.056 15 94.226 14.265 94.566 13.625C94.916 12.985 95.386 12.49 95.976 12.14C96.576 11.78 97.241 11.6 97.971 11.6C98.511 11.6 99.041 11.72 99.561 11.96C100.091 12.19 100.511 12.5 100.821 12.89V8.9H102.546V20H100.821V18.755C100.541 19.155 100.151 19.485 99.651 19.745C99.161 20.005 98.596 20.135 97.956 20.135C97.236 20.135 96.576 19.955 95.976 19.595C95.386 19.225 94.916 18.715 94.566 18.065C94.226 17.405 94.056 16.66 94.056 15.83ZM100.821 15.86C100.821 15.29 100.701 14.795 100.461 14.375C100.231 13.955 99.926 13.635 99.546 13.415C99.166 13.195 98.756 13.085 98.316 13.085C97.876 13.085 97.466 13.195 97.086 13.415C96.706 13.625 96.396 13.94 96.156 14.36C95.926 14.77 95.811 15.26 95.811 15.83C95.811 16.4 95.926 16.9 96.156 17.33C96.396 17.76 96.706 18.09 97.086 18.32C97.476 18.54 97.886 18.65 98.316 18.65C98.756 18.65 99.166 18.54 99.546 18.32C99.926 18.1 100.231 17.78 100.461 17.36C100.701 16.93 100.821 16.43 100.821 15.86ZM40.8254 26.575V33.22C40.8254 34.01 41.0304 34.605 41.4404 35.005C41.8604 35.405 42.4404 35.605 43.1804 35.605C43.9304 35.605 44.5104 35.405 44.9204 35.005C45.3404 34.605 45.5504 34.01 45.5504 33.22V26.575H47.2604V33.19C47.2604 34.04 47.0754 34.76 46.7054 35.35C46.3354 35.94 45.8404 36.38 45.2204 36.67C44.6004 36.96 43.9154 37.105 43.1654 37.105C42.4154 37.105 41.7304 36.96 41.1104 36.67C40.5004 36.38 40.0154 35.94 39.6554 35.35C39.2954 34.76 39.1154 34.04 39.1154 33.19V26.575H40.8254ZM53.6568 28.6C54.3068 28.6 54.8868 28.735 55.3968 29.005C55.9168 29.275 56.3218 29.675 56.6118 30.205C56.9018 30.735 57.0468 31.375 57.0468 32.125V37H55.3518V32.38C55.3518 31.64 55.1668 31.075 54.7968 30.685C54.4268 30.285 53.9218 30.085 53.2818 30.085C52.6418 30.085 52.1318 30.285 51.7518 30.685C51.3818 31.075 51.1968 31.64 51.1968 32.38V37H49.4868V28.735H51.1968V29.68C51.4768 29.34 51.8318 29.075 52.2618 28.885C52.7018 28.695 53.1668 28.6 53.6568 28.6ZM60.098 27.64C59.788 27.64 59.528 27.535 59.318 27.325C59.108 27.115 59.003 26.855 59.003 26.545C59.003 26.235 59.108 25.975 59.318 25.765C59.528 25.555 59.788 25.45 60.098 25.45C60.398 25.45 60.653 25.555 60.863 25.765C61.073 25.975 61.178 26.235 61.178 26.545C61.178 26.855 61.073 27.115 60.863 27.325C60.653 27.535 60.398 27.64 60.098 27.64ZM60.938 28.735V37H59.228V28.735H60.938ZM66.3781 35.47L68.7181 28.735H70.5331L67.3831 37H65.3431L62.2081 28.735H64.0381L66.3781 35.47ZM79.4007 32.665C79.4007 32.975 79.3807 33.255 79.3407 33.505H73.0257C73.0757 34.165 73.3207 34.695 73.7607 35.095C74.2007 35.495 74.7407 35.695 75.3807 35.695C76.3007 35.695 76.9507 35.31 77.3307 34.54H79.1757C78.9257 35.3 78.4707 35.925 77.8107 36.415C77.1607 36.895 76.3507 37.135 75.3807 37.135C74.5907 37.135 73.8807 36.96 73.2507 36.61C72.6307 36.25 72.1407 35.75 71.7807 35.11C71.4307 34.46 71.2557 33.71 71.2557 32.86C71.2557 32.01 71.4257 31.265 71.7657 30.625C72.1157 29.975 72.6007 29.475 73.2207 29.125C73.8507 28.775 74.5707 28.6 75.3807 28.6C76.1607 28.6 76.8557 28.77 77.4657 29.11C78.0757 29.45 78.5507 29.93 78.8907 30.55C79.2307 31.16 79.4007 31.865 79.4007 32.665ZM77.6157 32.125C77.6057 31.495 77.3807 30.99 76.9407 30.61C76.5007 30.23 75.9557 30.04 75.3057 30.04C74.7157 30.04 74.2107 30.23 73.7907 30.61C73.3707 30.98 73.1207 31.485 73.0407 32.125H77.6157ZM82.7935 29.935C83.0435 29.515 83.3735 29.19 83.7835 28.96C84.2035 28.72 84.6985 28.6 85.2685 28.6V30.37H84.8335C84.1635 30.37 83.6535 30.54 83.3035 30.88C82.9635 31.22 82.7935 31.81 82.7935 32.65V37H81.0835V28.735H82.7935V29.935ZM89.8403 37.135C89.1903 37.135 88.6053 37.02 88.0853 36.79C87.5753 36.55 87.1703 36.23 86.8703 35.83C86.5703 35.42 86.4103 34.965 86.3903 34.465H88.1603C88.1903 34.815 88.3553 35.11 88.6553 35.35C88.9653 35.58 89.3503 35.695 89.8103 35.695C90.2903 35.695 90.6603 35.605 90.9203 35.425C91.1903 35.235 91.3253 34.995 91.3253 34.705C91.3253 34.395 91.1753 34.165 90.8753 34.015C90.5853 33.865 90.1203 33.7 89.4803 33.52C88.8603 33.35 88.3553 33.185 87.9653 33.025C87.5753 32.865 87.2353 32.62 86.9453 32.29C86.6653 31.96 86.5253 31.525 86.5253 30.985C86.5253 30.545 86.6553 30.145 86.9153 29.785C87.1753 29.415 87.5453 29.125 88.0253 28.915C88.5153 28.705 89.0753 28.6 89.7053 28.6C90.6453 28.6 91.4003 28.84 91.9703 29.32C92.5503 29.79 92.8603 30.435 92.9003 31.255H91.1903C91.1603 30.885 91.0103 30.59 90.7403 30.37C90.4703 30.15 90.1053 30.04 89.6453 30.04C89.1953 30.04 88.8503 30.125 88.6103 30.295C88.3703 30.465 88.2503 30.69 88.2503 30.97C88.2503 31.19 88.3303 31.375 88.4903 31.525C88.6503 31.675 88.8453 31.795 89.0753 31.885C89.3053 31.965 89.6453 32.07 90.0953 32.2C90.6953 32.36 91.1853 32.525 91.5653 32.695C91.9553 32.855 92.2903 33.095 92.5703 33.415C92.8503 33.735 92.9953 34.16 93.0053 34.69C93.0053 35.16 92.8753 35.58 92.6153 35.95C92.3553 36.32 91.9853 36.61 91.5053 36.82C91.0353 37.03 90.4803 37.135 89.8403 37.135ZM95.723 27.64C95.413 27.64 95.153 27.535 94.943 27.325C94.733 27.115 94.628 26.855 94.628 26.545C94.628 26.235 94.733 25.975 94.943 25.765C95.153 25.555 95.413 25.45 95.723 25.45C96.023 25.45 96.278 25.555 96.488 25.765C96.698 25.975 96.803 26.235 96.803 26.545C96.803 26.855 96.698 27.115 96.488 27.325C96.278 27.535 96.023 27.64 95.723 27.64ZM96.563 28.735V37H94.853V28.735H96.563ZM100.803 30.13V34.705C100.803 35.015 100.873 35.24 101.013 35.38C101.163 35.51 101.413 35.575 101.763 35.575H102.813V37H101.463C100.693 37 100.103 36.82 99.6931 36.46C99.2831 36.1 99.0781 35.515 99.0781 34.705V30.13H98.1031V28.735H99.0781V26.68H100.803V28.735H102.813V30.13H100.803ZM111.829 28.735L106.759 40.885H104.989L106.669 36.865L103.414 28.735H105.319L107.644 35.035L110.059 28.735H111.829Z" fill="white"/>
</svg>
